# xmcd CD database file
#
# Track frame offsets:
#	150
#	18063
#	41804
#	62840
#	82031
#	99522
#	120743
#	135292
#	152773
#	170930
#	191761
#	206855
#	222504
#
# Disc length: 2970 seconds
#
# Revision: 0
# Processed by: cddbd v1.4PL0 Copyright (c) Steve Scherf et al.
# Submitted via: CDex 1.50
#
DISCID=be0b980d
DTITLE=Radio Rail - Radio Rail
DYEAR=1900
DGENRE=Country
TTITLE0=Ain't No Highway
TTITLE1=Cool Lovin' Woman
TTITLE2=Sonora/Saskatchewan
TTITLE3=Red River Romance
TTITLE4=Love I Can't Hold
TTITLE5=Steel River
TTITLE6=Pale Lady
TTITLE7=Lovin' You Is All I Can Do
TTITLE8=Liberacion de Amor
TTITLE9=Santa Clara Street
TTITLE10=Footprints
TTITLE11=Radio Rail
TTITLE12=(hidden track)
EXTD=
EXTT0=
EXTT1=
EXTT2=
EXTT3=
EXTT4=
EXTT5=
EXTT6=
EXTT7=
EXTT8=
EXTT9=
EXTT10=
EXTT11=
EXTT12=
PLAYORDER=
